<svg width="22" height="22" fill="none" xmlns="http://www.w3.org/2000/svg"><g clip-path="url(#clip0_1:109)" fill="#fff"><path d="M21.313 13.75a.688.688 0 00-.688.687v4.813H1.375V11h7.563a.688.688 0 000-1.375H1.375v-2.75h7.563a.688.688 0 000-1.375H1.375C.616 5.5 0 6.116 0 6.875V19.25c0 .759.616 1.375 1.375 1.375h19.25c.759 0 1.375-.616 1.375-1.375v-4.813a.688.688 0 00-.688-.687z"/><path d="M6.188 13.75h-2.75a.688.688 0 000 1.374h2.75a.688.688 0 000-1.375zM21.584 3.493L16.77 1.43a.702.702 0 00-.543 0l-4.813 2.063a.69.69 0 00-.415.632v2.75c0 3.783 1.399 5.994 5.158 8.16a.69.69 0 00.685 0C20.602 12.874 22 10.662 22 6.874v-2.75a.688.688 0 00-.416-.632zm-.959 3.382c0 3.175-1.05 4.923-4.125 6.765-3.074-1.847-4.125-3.594-4.125-6.765V4.58L16.5 2.81l4.125 1.768v2.296z"/><path d="M18.993 5.65a.692.692 0 00-.967.107L15.865 8.46l-.856-1.279a.688.688 0 00-1.144.762l1.376 2.063a.693.693 0 00.543.306h.028a.688.688 0 00.538-.258l2.75-3.438a.688.688 0 00-.107-.966z"/></g><defs><clipPath id="clip0_1:109"><path fill="#fff" d="M0 0h22v22H0z"/></clipPath></defs></svg>