<svg width="20" height="13" fill="none" xmlns="http://www.w3.org/2000/svg"><path d="M8.49 6.89l-.002-.383c0-1.594.093-3.048.234-3.995l.123-.59c.069-.311.159-.667.253-.848A1.966 1.966 0 0110.834 0h.063c.469.016 1.454.427 1.454.442 1.586.665 4.646 2.673 6.06 4.105l.41.43c.107.117.228.254.303.362.25.332.376.742.376 1.153 0 .458-.14.884-.407 1.232l-.421.456-.095.097c-1.282 1.39-4.63 3.663-6.382 4.359l-.264.101c-.318.114-.764.25-1.034.263-.344 0-.673-.08-.986-.238a2.042 2.042 0 01-.876-.98c-.11-.283-.282-1.136-.282-1.152-.159-.86-.25-2.218-.263-3.74zM0 6.5c0-.909.73-1.645 1.629-1.645l4.007.355c.706 0 1.278.577 1.278 1.29 0 .713-.572 1.29-1.278 1.29l-4.007.354C.729 8.144 0 7.408 0 6.5z" fill="#fff"/></svg>