<svg width="22" height="22" fill="none" xmlns="http://www.w3.org/2000/svg"><g clip-path="url(#clip0_1:128)" fill="#fff"><path d="M5.866 16.133H8.8a.367.367 0 000-.733H5.866a.367.367 0 000 .733z"/><path d="M.667 17.606c.117.166.253.36.411.618.065.104.133.208.202.314.3.367.492.81.554 1.28V20.9a1.1 1.1 0 001.1 1.1h4.4a1.1 1.1 0 001.1-1.1v-1.467a.379.379 0 01.197-.323 5.628 5.628 0 001.837-1.51h.166c.131 0 .263-.018.39-.053l1.14 1.723a2.499 2.499 0 002.448.997c.18-.03.362.04.474.183l.699 1.032a1.177 1.177 0 001.634.312l4.061-2.815a1.17 1.17 0 00.495-.748 1.151 1.151 0 00-.17-.863 2.097 2.097 0 01-.146-1.19l.014-.282c.01-.317-.008-.63-.026-.932a36.1 36.1 0 01-.02-.34 8.155 8.155 0 00-1.382-4.21l-2.148-3.172a1.5 1.5 0 00-2.006-.486 1.453 1.453 0 00-.601.714 1.459 1.459 0 00-2.237.623 1.469 1.469 0 00-1.153-.267v-6.36C12.1.657 11.444 0 10.634 0h-6.6c-.81 0-1.467.657-1.467 1.467v4.822a1.478 1.478 0 00-.328-.056h-.065a1.092 1.092 0 00-1.08.968C1.034 7.707.937 8.208.801 8.7a6.135 6.135 0 01-.298.783 4.018 4.018 0 00-.426 1.532c-.01.315.002.65.014.973.012.301.024.612.016.898-.005.193-.021.491-.04.828-.04.733-.089 1.645-.056 2.08.007.662.238 1.3.656 1.813zm12.322-8.752l.411.606a.367.367 0 00.094.092l.02.014a.367.367 0 00.115.046h.018a.354.354 0 00.057.007.355.355 0 00.048-.007.357.357 0 00.159-.056.367.367 0 00.098-.509.733.733 0 111.214-.823l.41.613a.367.367 0 00.607-.411.733.733 0 01.23-1.04.778.778 0 011.02.268l2.148 3.173a7.424 7.424 0 011.256 3.831l.02.352c.017.298.034.58.024.863-.002.088-.008.177-.013.267a2.706 2.706 0 00.262 1.623.44.44 0 01-.122.615l-4.06 2.813a.442.442 0 01-.613-.118l-.705-1.041a1.216 1.216 0 00-1.17-.489 1.753 1.753 0 01-1.744-.677l-1.29-1.95v-.005c0-.002-.003-.003-.004-.006l-.978-1.48c-.269-.397-.299-1.075.085-1.336l.408-.312 2.463 3.617a.367.367 0 10.606-.413l-2.644-3.88a.346.346 0 00-.04-.083.384.384 0 00-.04-.037l-4.246-6.23a.734.734 0 011.216-.82l3.066 4.462a.367.367 0 10.604-.415l-.2-.29-.004-.012a.733.733 0 111.214-.822zM9.167 5.882l-.25-.364a1.467 1.467 0 10-2.429 1.645l.303.445a1.83 1.83 0 112.376-1.741v.015zm0-5.149V1.1a.367.367 0 01-.367.367H5.867A.367.367 0 015.5 1.1V.733h3.667zM3.3 1.467c0-.405.329-.734.734-.734h.733V1.1a1.1 1.1 0 001.1 1.1H8.8a1.1 1.1 0 001.1-1.1V.733h.734c.405 0 .733.329.733.734V8.21c-.128.124-.232.27-.307.43L9.75 6.732a2.567 2.567 0 10-2.415 1.702h.018l3.226 4.737-.421.323c-.747.506-.739 1.64-.266 2.34l.683 1.034h-6.54a.733.733 0 01-.734-.734v-4.35c.432-.939.68-1.951.732-2.983h.002c0-1.119-.346-1.75-.734-2.105V1.467zM.8 13.752c.018-.344.035-.65.04-.848.008-.31-.004-.632-.016-.944-.012-.325-.024-.632-.014-.922.036-.44.16-.87.364-1.263a7 7 0 00.333-.875c.145-.529.25-1.067.314-1.612a.359.359 0 01.353-.321h.06a.888.888 0 01.43.149.36.36 0 00.102.077c.268.227.534.683.534 1.607a.123.123 0 00.005.052c.063 1.08-.718 2.828-.902 2.92a.364.364 0 00.164.691v3.67c0 .81.657 1.467 1.467 1.467h5.45a6.36 6.36 0 01-1.215.872 1.112 1.112 0 00-.569.961V20.9a.367.367 0 01-.366.367h-4.4a.367.367 0 01-.367-.367v-1.082a3.118 3.118 0 00-.674-1.683c-.065-.1-.13-.198-.19-.296-.168-.272-.312-.476-.435-.654a2.236 2.236 0 01-.526-1.445c-.028-.39.02-1.276.058-1.988z"/><path d="M3.666 20.533h.367a.367.367 0 000-.733h-.367a.367.367 0 000 .733zm1.834 0h1.1a.367.367 0 100-.733H5.5a.367.367 0 100 .733zm11.737-.461a.365.365 0 00.206-.063l.303-.206a.367.367 0 10-.41-.607l-.304.205a.366.366 0 00.205.67zm1.518-1.028a.366.366 0 00.205-.063l1.306-.885a.367.367 0 10-.41-.606l-1.307.885a.367.367 0 00.206.67z"/></g><defs><clipPath id="clip0_1:128"><path fill="#fff" d="M0 0h22v22H0z"/></clipPath></defs></svg>