<svg width="26" height="26" fill="none" xmlns="http://www.w3.org/2000/svg"><circle cx="13" cy="13" r="13" fill="#00AFD7"/><path d="M18.786 9.64a.229.229 0 00-.288-.054 2.05 2.05 0 01-.307.119 2.37 2.37 0 00.365-.755c.034-.137-.042-.279-.17-.315a.227.227 0 00-.2.038 4.848 4.848 0 01-1.156.485c-.828-.84-2.09-.944-3.029-.251-.723.525-1.121 1.432-1.038 2.365-1.567-.143-3.01-.977-3.984-2.304a.241.241 0 00-.204-.096.239.239 0 00-.192.126 2.66 2.66 0 00-.265 1.938c.082.338.224.656.417.937a1.268 1.268 0 01-.244-.168.23.23 0 00-.338.038.27.27 0 00-.053.162c.014.955.502 1.828 1.28 2.29a1.669 1.669 0 01-.31-.07c-.127-.042-.26.036-.299.172a.276.276 0 00.01.18c.338.812 1.013 1.405 1.82 1.6a3.993 3.993 0 01-2.533.56.237.237 0 00-.257.176.267.267 0 00.111.304 6.835 6.835 0 003.55 1.083 5.806 5.806 0 003.37-1.106c1.904-1.357 3.09-3.792 2.926-5.972.407-.323.76-.718 1.044-1.168a.273.273 0 00-.026-.314z" fill="#fff"/></svg>