<svg width="21" height="14" fill="none" xmlns="http://www.w3.org/2000/svg"><path d="M20.148 1.299C19.605.353 19.016.179 17.816.113 16.616.033 13.601 0 10.99 0 8.37 0 5.355.033 4.157.111 2.959.18 2.368.351 1.82 1.3c-.56.943-.847 2.57-.847 5.434v.01c0 2.852.288 4.491.847 5.426.548.946 1.138 1.117 2.336 1.197 1.199.068 4.215.109 6.833.109 2.612 0 5.627-.04 6.828-.108 1.2-.08 1.79-.251 2.333-1.197.564-.935.85-2.574.85-5.426v-.009c0-2.865-.286-4.492-.852-5.436zM8.483 10.413v-7.35l6.258 3.675-6.258 3.675z" fill="#545761"/></svg>